# xmcd
#
# Track frame offsets:
#	150
#	12429
#	27904
#	42020
#	60969
#	71375
#	83213
#	93969
#	103370
#	115683
#	128664
#	140172
#	153883
#	165005
#	176129
#	185276
#	194223
#	208708
#	218648
#	229922
#	242846
#	257488
#	268815
#	279127
#	293514
#	304706
#	317067
#	328710
#	342335
#
# Disc length: 4714 seconds
#
# Revision: 0
# Processed by: cddbd v1.5.2PL0 Copyright (c) Steve Scherf et al.
# Submitted via: EasyCDDAExtractor 2010.6.0.0
#
DISCID=9912681d
DTITLE=Various Artist - That Kat Sure Could Play! - The Legendary Ike Turner 
DYEAR=1900
DGENRE=
TTITLE0=Eugene Fox - Stay At Home
TTITLE1=Eugene Fox - Sinners Dream 
TTITLE2=Jesse Knight and His Combo - Nothing But Money 
TTITLE3=The Fox - The Dream (Parts 1 and 2) 
TTITLE4=Lover Boy (Ike Turner)  - Love Is Scarce 
TTITLE5=Lover Boy (Ike Turner) - The Way You Used To Treat Me
TTITLE6=Lonnie "The Cat" With Bobby Hines Band - I Ain't Drunk 
TTITLE7=Lonnie "The Cat" - The Road I Travel
TTITLE8=Johnny Wright  - Suffocate
TTITLE9=Clayton Love  - Why Don't You Believe In Me
TTITLE10=Clayton Love - Wicked Little Baby
TTITLE11=Dennis Binder and His Orchestra  - I Miss You So 
TTITLE12=Dennis Binder and His Orchestra  - Early Times
TTITLE13=Clayton Love Orchestra  - Bye Bye Baby
TTITLE14=Clayton Love Orchestra - Mary Lou
TTITLE15=Matt Cockrell - Baby Please 
TTITLE16=Matt Cockrell - Gypsy Blues 
TTITLE17=Billy Gayles and His Orchestra  - Night Howler
TTITLE18=Billy Gayles and His Orchestra - My Heart Is In Your Hands
TTITLE19=Elmore James and His Broom Dusters - Sho Nuff I Do 
TTITLE20=Elmore James and His Broom Dusters - 1839 Blues 
TTITLE21=Ike Turner and His Orchestra  - Loosely (The Wild One)
TTITLE22=Ike Turner and His Orchestra - Cubano Jump 
TTITLE23=Ike Turner and His Orchestra - Cuban Get Away (Bayou Rock) 
TTITLE24=The Flairs  - Baby Wants
TTITLE25=The Flairs  - You Were Untrue
TTITLE26=Elmore James and His Broom Dusters - Rock My Baby Right 
TTITLE27=The Sly Fox - Hoo-Doo Say
TTITLE28=The Sly Fox - I'm Tired Of Beggin'
EXTD=
EXTT0=
EXTT1=
EXTT2=
EXTT3=
EXTT4=
EXTT5=
EXTT6=
EXTT7=
EXTT8=
EXTT9=
EXTT10=
EXTT11=
EXTT12=
EXTT13=
EXTT14=
EXTT15=
EXTT16=
EXTT17=
EXTT18=
EXTT19=
EXTT20=
EXTT21=
EXTT22=
EXTT23=
EXTT24=
EXTT25=
EXTT26=
EXTT27=
EXTT28=
PLAYORDER=
